<svg viewBox="0 0 412.24 412.16" xmlns="http://www.w3.org/2000/svg"><path d="m686.9 114.38c-115.23-2.1-210.15 90.82-210.08 205.87a205.71 205.71 0 0 0 206.08 206.26c111.4.6 204.18-89.41 206.12-202.27 1.98-116.03-91.08-207.83-202.12-209.86zm52.89 205.75h-36.87v132.87h-52.92v-131.87h-27.58v-45.13h27.41c0-5.07 0-9.68 0-14.29 0-8.83-.2-17.67.15-26.49 1-24.34 13.77-40.4 37.74-43.74 18.18-2.53 36.79-2 55.85-2.78v46.42c-2.53.12-5 .28-7.36.32-8 .13-16 0-24 .41-6.37.36-9 3.14-9.22 9.51-.28 10-.07 20-.07 30.49h40.77z" fill="#fde064" transform="translate(-476.82 -114.35)"/></svg>