<svg viewBox="0 0 305 305" xmlns="http://www.w3.org/2000/svg"><g transform="translate(-131 -262)"><path d="m326.55 383a8.49 8.49 0 1 1 8.49-8.62 8.46 8.46 0 0 1 -8.49 8.62z" fill="#fefdfd"/><path d="m283.5 262a152.5 152.5 0 1 0 152.5 152.5 152.5 152.5 0 0 0 -152.5-152.5zm75.5 189.88c-.1 21.9-16.56 38.12-38.45 38.12-24.33 0-48.67-.2-73 .06-23.55.24-39.55-18.76-38.65-38.77.55-12 .1-24 .1-36 0-12.5.29-25-.07-37.5-.49-16.67 11.59-37 37.18-37.66 25.15-.63 50.34-.36 75.5-.07 21.07.24 37.2 16.7 37.35 37.81.17 24.68.13 49.35.04 74.01z" fill="#fde064"/><path d="m321.61 340.07c-25.16-.29-50.35-.56-75.5.07-25.59.64-37.67 21-37.18 37.66.36 12.49.07 25 .07 37.5 0 12 .45 24-.1 36-.93 20 15.13 39 38.62 38.77 24.33-.26 48.67-.06 73-.06 21.89 0 38.35-16.22 38.45-38.12.12-24.66.16-49.33 0-74-.16-21.12-16.29-37.58-37.36-37.82zm24.2 112.16c0 15-9.81 24.68-24.78 24.71q-37.25.09-74.47 0c-15 0-24.58-9.73-24.64-24.78 0-12.33 0-24.66 0-37 0-12.49 0-25 0-37.48.07-14.66 9.78-24.46 24.45-24.51q37.49-.12 75 0c14.59.06 24.42 9.95 24.47 24.58q.09 37.25-.03 74.48z" fill="#fefefe"/><path d="m321.34 353.18q-37.48-.14-75 0c-14.67.05-24.38 9.85-24.45 24.51-.06 12.5 0 25 0 37.48v37c.06 15 9.67 24.75 24.64 24.78q37.23.09 74.47 0c15 0 24.74-9.74 24.78-24.71q.12-37.25 0-74.47c-.02-14.64-9.85-24.53-24.44-24.59zm-37.66 98.07a36.18 36.18 0 1 1 36.4-36 36.08 36.08 0 0 1 -36.4 36z" fill="#fde064"/><path d="m284 378.9a36.18 36.18 0 1 0 36.1 36.34 36.14 36.14 0 0 0 -36.1-36.34zm-.16 59.64a23.41 23.41 0 1 1 0-46.81 23.41 23.41 0 0 1 0 46.81z" fill="#fefefe"/><path d="m283.81 391.73a23.41 23.41 0 1 0 23.39 23.35 23 23 0 0 0 -23.39-23.35z" fill="#fde064"/></g></svg>