<svg viewBox="0 0 693.47 693.56" xmlns="http://www.w3.org/2000/svg"><g transform="translate(-84.13 -75.44)"><path d="m602.25 316.58c-2.46 2.2-4 2.33-6.74.54-40-26.41-84.21-40.05-131.83-43.08-4.51-.29-4.7-1.59-3.47-5.33q13.07-39.85 25.74-79.84c1.13-3.56 2.55-4.05 6.05-3.27 23.24 5.16 46.51 10.19 69.84 14.91 4.2.85 6 2.39 7 6.62 5.13 21.55 26.19 36.74 48 34.68 17.66-1.66 30.89-10.39 38.26-26.61 6.68-14.7 5.6-29.28-3.63-42.75-13.87-20.24-50.43-29.47-72.59-2.39-1.94 2.37-3.66 3.21-6.73 2.54-30.55-6.6-61.15-13.12-91.77-19.74a12.42 12.42 0 0 0 -11.52 3.14c-2.88 2.52-4.36 5.77-5.48 9.33-10.6 33.66-21.3 67.28-31.81 101-1 3.24-2.32 4.51-5.83 4.49a268.81 268.81 0 0 0 -51.62 5.18c-34.73 6.63-67.3 18.92-96.84 38.43-5.93 3.91-9.8 4.23-15.67.48-13.57-8.66-28.2-13.77-44.86-12.25-33.1 3-57.71 34.5-52.34 67.34 3.23 19.76 14.32 34 30.54 44.83 1.7 1.13 3 1.7 2.49 4.51-6.35 36.32.94 69.86 21.37 100.47 22.27 33.38 53.56 55.85 89.6 71.92 37.59 16.75 77.37 24.2 118.41 25.27 4.5 0 9 .1 13.49 0s9-.45 13.47-.69c41.83-2.19 81.52-12.39 118.68-31.9 32.77-17.2 60.41-40.13 79.49-72.36 16.49-27.88 22.06-57.94 17.17-89.89-.6-3.89-.29-6 3.28-8.44 31.7-21.67 38.8-56.86 17.83-86.84-19.5-27.94-62.61-33.03-87.98-10.3z" fill="none"/><g fill="#ffe164"><path d="m441.28 75.56c-201.46-5.13-356.28 155.5-357.14 344.62-.84 194.22 155.95 348.53 346.71 348.82 192-.77 341-152.71 346.57-334.49 6.24-202.92-153.62-354.31-336.14-358.95zm231.12 338.11c-3.57 2.45-3.88 4.55-3.28 8.44 4.89 31.95-.68 62-17.17 89.89-19.08 32.23-46.72 55.16-79.49 72.36-37.16 19.51-76.85 29.71-118.68 31.9-4.49.24-9 .57-13.47.69s-9 0-13.49 0c-41-1-80.83-8.49-118.41-25.24-36-16.07-67.33-38.54-89.6-71.92-20.43-30.61-27.72-64.15-21.37-100.47.49-2.81-.79-3.38-2.49-4.51-16.22-10.81-27.31-25.05-30.54-44.81-5.37-32.84 19.24-64.31 52.34-67.34 16.66-1.52 31.29 3.59 44.86 12.25 5.87 3.75 9.74 3.43 15.67-.48 29.54-19.51 62.11-31.8 96.84-38.43a268.81 268.81 0 0 1 51.62-5.26c3.51 0 4.82-1.25 5.83-4.49 10.51-33.69 21.21-67.31 31.81-101 1.12-3.56 2.6-6.81 5.48-9.33a12.42 12.42 0 0 1 11.52-3.09c30.62 6.65 61.22 13.17 91.8 19.77 3.07.67 4.79-.17 6.73-2.54 22.16-27.08 58.72-17.85 72.59 2.39 9.23 13.47 10.31 28.05 3.63 42.75-7.37 16.22-20.6 25-38.26 26.61-21.83 2.06-42.89-13.13-48-34.68-1-4.23-2.81-5.77-7-6.62-23.33-4.72-46.6-9.75-69.84-14.91-3.5-.78-4.92-.29-6.05 3.27q-12.66 40-25.74 79.84c-1.23 3.74-1 5 3.47 5.33 47.62 3 91.84 16.67 131.83 43.08 2.71 1.79 4.28 1.66 6.74-.54 25.37-22.73 68.48-17.64 88 10.25 20.92 29.98 13.82 65.17-17.88 86.84z"/><path d="m437.73 554.13c-35.91.08-64.62-7.8-90.16-26a26.31 26.31 0 0 1 -4.19-3.52c-5.54-6.06-6.55-13.83-2.41-18.5 4.57-5.16 13.13-8.95 21.34-3.19 23.69 16.57 50.24 24.08 79.14 22.08a122.19 122.19 0 0 0 62.71-22.25c3.64-2.55 7.32-3.7 11.7-2.52 12.53 3.35 15.9 14.37 6.85 24.11-8.79 9.45-20.23 15.1-32.1 19.62-18.53 7.04-37.75 10.59-52.88 10.17z"/><path d="m516 450.94c-20.57 0-37-16.76-37.12-37.77-.07-19.76 17.13-36.52 37.4-36.43s36.91 17 37 37.5c-.01 19.63-17.28 36.7-37.28 36.7z"/><path d="m312.88 414c-.09-20.14 16.52-37 36.59-37.2a37.5 37.5 0 0 1 37.69 37.2c.16 19.22-17.08 37-35.89 37-21.42 0-38.27-16.31-38.39-37z"/></g></g></svg>