<svg viewBox="0 0 471.25 471.24" xmlns="http://www.w3.org/2000/svg"><g transform="translate(-209.28 -215.29)"><path d="m445 215.29c127.15.19 235.45 101.28 235.55 235.58.11 131.36-104.63 235.89-235.86 235.67-134.37-.24-235.51-108.8-235.39-236.25.1-129.49 105.87-234.98 235.7-235z" fill="#ffe164"/><path d="m386.94 527.16c-24.09-2.5-45.86-19.46-49.66-38.87 6.62.69 13.21 1.42 19.74-.24 1.23-.7 1.19-1.39 0-2.08-21.06-7.56-34.72-21.77-39.43-44-.41-1.94-.51-3.93-.75-5.9-.07-1.57-1.5-3.55 1.27-4.28a57.65 57.65 0 0 0 23.74 6.23c-12.19-9.35-20.24-20.33-23.4-34.48s-.92-27.44 6-40c1.15-.28 1.54.55 2.06 1.15 29.68 34 67.05 52.77 111.94 56.84 3.22.29 4.21 0 3.74-3.79-3.2-25.22 8.12-47.49 29.36-58.49 22.09-11.45 47.62-8.15 66.4 8.74a6.13 6.13 0 0 0 6.24 1.63 123.41 123.41 0 0 0 32.51-12.89c-4.43 13.5-12.46 22.91-23.94 30.71a67.94 67.94 0 0 0 15.48-2.78c4.9-1.33 9.68-3.07 15.71-5-6 9.25-12.39 16.78-20.32 22.39-6.23 4.4-7.61 9.38-7.73 16.57-1.23 69.54-51.18 143.66-137.21 155.48-39.89 5.49-77.13-1.79-113.21-23.36 30.71 2.25 57.8-4 81.72-21.55.43-.72.8-1.44-.26-2.03z" fill="#fefefe"/></g></svg>